<mxfile host="app.diagrams.net" modified="2021-03-10T14:04:45.231Z" agent="5.0 (Windows NT 10.0; Win64; x64) AppleWebKit/537.36 (KHTML, like Gecko) Chrome/88.0.4324.190 Safari/537.36" etag="yr41-xT263wsbpKQn3BZ" version="14.4.6" type="github">
  <diagram id="vF4iMhBAjs350FeFTQnq" name="Page-1">
    <mxGraphModel dx="1422" dy="794" grid="1" gridSize="10" guides="1" tooltips="1" connect="1" arrows="1" fold="1" page="1" pageScale="1" pageWidth="827" pageHeight="1169" math="0" shadow="0">
      <root>
        <mxCell id="0" />
        <mxCell id="1" parent="0" />
        <mxCell id="4fqeMKU_hJklu5X01QzV-25" style="edgeStyle=orthogonalEdgeStyle;rounded=0;orthogonalLoop=1;jettySize=auto;html=1;exitX=0.5;exitY=1;exitDx=0;exitDy=0;" edge="1" parent="1" source="4fqeMKU_hJklu5X01QzV-1" target="4fqeMKU_hJklu5X01QzV-2">
          <mxGeometry relative="1" as="geometry" />
        </mxCell>
        <mxCell id="4fqeMKU_hJklu5X01QzV-26" style="edgeStyle=orthogonalEdgeStyle;rounded=0;orthogonalLoop=1;jettySize=auto;html=1;exitX=0.5;exitY=1;exitDx=0;exitDy=0;entryX=0.5;entryY=0;entryDx=0;entryDy=0;" edge="1" parent="1" source="4fqeMKU_hJklu5X01QzV-1" target="4fqeMKU_hJklu5X01QzV-22">
          <mxGeometry relative="1" as="geometry" />
        </mxCell>
        <mxCell id="4fqeMKU_hJklu5X01QzV-27" style="edgeStyle=orthogonalEdgeStyle;rounded=0;orthogonalLoop=1;jettySize=auto;html=1;exitX=0.5;exitY=1;exitDx=0;exitDy=0;" edge="1" parent="1" source="4fqeMKU_hJklu5X01QzV-1" target="4fqeMKU_hJklu5X01QzV-23">
          <mxGeometry relative="1" as="geometry" />
        </mxCell>
        <mxCell id="4fqeMKU_hJklu5X01QzV-1" value="Inicio" style="rounded=1;whiteSpace=wrap;html=1;" vertex="1" parent="1">
          <mxGeometry x="270" y="70" width="120" height="60" as="geometry" />
        </mxCell>
        <mxCell id="4fqeMKU_hJklu5X01QzV-31" style="edgeStyle=orthogonalEdgeStyle;rounded=0;orthogonalLoop=1;jettySize=auto;html=1;exitX=0.5;exitY=1;exitDx=0;exitDy=0;entryX=0.5;entryY=0;entryDx=0;entryDy=0;" edge="1" parent="1" source="4fqeMKU_hJklu5X01QzV-2">
          <mxGeometry relative="1" as="geometry">
            <mxPoint x="320" y="320" as="targetPoint" />
          </mxGeometry>
        </mxCell>
        <mxCell id="4fqeMKU_hJklu5X01QzV-2" value="A=DIGITE 1 NÚMERO" style="shape=parallelogram;perimeter=parallelogramPerimeter;whiteSpace=wrap;html=1;fixedSize=1;" vertex="1" parent="1">
          <mxGeometry x="110" y="180" width="150" height="60" as="geometry" />
        </mxCell>
        <mxCell id="4fqeMKU_hJklu5X01QzV-10" value="A É O MAIOR" style="shape=document;whiteSpace=wrap;html=1;boundedLbl=1;" vertex="1" parent="1">
          <mxGeometry x="470" y="310" width="120" height="80" as="geometry" />
        </mxCell>
        <mxCell id="4fqeMKU_hJklu5X01QzV-33" style="edgeStyle=orthogonalEdgeStyle;rounded=0;orthogonalLoop=1;jettySize=auto;html=1;exitX=0.5;exitY=1;exitDx=0;exitDy=0;entryX=0.5;entryY=0;entryDx=0;entryDy=0;" edge="1" parent="1" source="4fqeMKU_hJklu5X01QzV-22">
          <mxGeometry relative="1" as="geometry">
            <mxPoint x="320" y="320" as="targetPoint" />
            <Array as="points">
              <mxPoint x="320" y="240" />
            </Array>
          </mxGeometry>
        </mxCell>
        <mxCell id="4fqeMKU_hJklu5X01QzV-22" value="B=DIGITE 1 NÚMERO" style="shape=parallelogram;perimeter=parallelogramPerimeter;whiteSpace=wrap;html=1;fixedSize=1;" vertex="1" parent="1">
          <mxGeometry x="250" y="180" width="150" height="60" as="geometry" />
        </mxCell>
        <mxCell id="4fqeMKU_hJklu5X01QzV-34" style="edgeStyle=orthogonalEdgeStyle;rounded=0;orthogonalLoop=1;jettySize=auto;html=1;exitX=0.5;exitY=1;exitDx=0;exitDy=0;" edge="1" parent="1" source="4fqeMKU_hJklu5X01QzV-23">
          <mxGeometry relative="1" as="geometry">
            <mxPoint x="320" y="310" as="targetPoint" />
            <Array as="points">
              <mxPoint x="475" y="280" />
              <mxPoint x="320" y="280" />
            </Array>
          </mxGeometry>
        </mxCell>
        <mxCell id="4fqeMKU_hJklu5X01QzV-23" value="C=DIGITE 1 NÚMERO" style="shape=parallelogram;perimeter=parallelogramPerimeter;whiteSpace=wrap;html=1;fixedSize=1;" vertex="1" parent="1">
          <mxGeometry x="400" y="180" width="150" height="60" as="geometry" />
        </mxCell>
        <mxCell id="4fqeMKU_hJklu5X01QzV-32" value="ENTÃO" style="endArrow=classic;html=1;" edge="1" parent="1">
          <mxGeometry width="50" height="50" relative="1" as="geometry">
            <mxPoint x="380" y="350" as="sourcePoint" />
            <mxPoint x="470" y="350" as="targetPoint" />
          </mxGeometry>
        </mxCell>
        <mxCell id="4fqeMKU_hJklu5X01QzV-35" value="SENÃO" style="endArrow=classic;html=1;exitX=0.5;exitY=1;exitDx=0;exitDy=0;" edge="1" parent="1">
          <mxGeometry width="50" height="50" relative="1" as="geometry">
            <mxPoint x="320" y="380" as="sourcePoint" />
            <mxPoint x="320" y="420" as="targetPoint" />
          </mxGeometry>
        </mxCell>
        <mxCell id="4fqeMKU_hJklu5X01QzV-38" value="ENTÃO&lt;br&gt;" style="endArrow=classic;html=1;exitX=1;exitY=0.5;exitDx=0;exitDy=0;" edge="1" parent="1">
          <mxGeometry width="50" height="50" relative="1" as="geometry">
            <mxPoint x="385" y="450" as="sourcePoint" />
            <mxPoint x="470" y="450" as="targetPoint" />
          </mxGeometry>
        </mxCell>
        <mxCell id="4fqeMKU_hJklu5X01QzV-39" value="B É O MAIOR" style="shape=document;whiteSpace=wrap;html=1;boundedLbl=1;" vertex="1" parent="1">
          <mxGeometry x="470" y="420" width="120" height="80" as="geometry" />
        </mxCell>
        <mxCell id="4fqeMKU_hJklu5X01QzV-47" value="ENTÃO" style="edgeStyle=orthogonalEdgeStyle;rounded=0;orthogonalLoop=1;jettySize=auto;html=1;exitX=1;exitY=0.5;exitDx=0;exitDy=0;entryX=0;entryY=0.5;entryDx=0;entryDy=0;" edge="1" parent="1" target="4fqeMKU_hJklu5X01QzV-43">
          <mxGeometry relative="1" as="geometry">
            <mxPoint x="380" y="555" as="sourcePoint" />
          </mxGeometry>
        </mxCell>
        <mxCell id="4fqeMKU_hJklu5X01QzV-55" style="edgeStyle=orthogonalEdgeStyle;rounded=0;orthogonalLoop=1;jettySize=auto;html=1;exitX=1;exitY=0.5;exitDx=0;exitDy=0;entryX=0;entryY=0.5;entryDx=0;entryDy=0;" edge="1" parent="1" source="4fqeMKU_hJklu5X01QzV-43" target="4fqeMKU_hJklu5X01QzV-53">
          <mxGeometry relative="1" as="geometry" />
        </mxCell>
        <mxCell id="4fqeMKU_hJklu5X01QzV-43" value="C É O MAIOR" style="shape=document;whiteSpace=wrap;html=1;boundedLbl=1;" vertex="1" parent="1">
          <mxGeometry x="480" y="510" width="120" height="80" as="geometry" />
        </mxCell>
        <mxCell id="4fqeMKU_hJklu5X01QzV-49" value="FIM" style="rounded=1;whiteSpace=wrap;html=1;" vertex="1" parent="1">
          <mxGeometry x="630" y="320" width="120" height="60" as="geometry" />
        </mxCell>
        <mxCell id="4fqeMKU_hJklu5X01QzV-50" value="" style="endArrow=classic;html=1;entryX=0;entryY=0.5;entryDx=0;entryDy=0;" edge="1" parent="1" target="4fqeMKU_hJklu5X01QzV-49">
          <mxGeometry width="50" height="50" relative="1" as="geometry">
            <mxPoint x="590" y="350" as="sourcePoint" />
            <mxPoint x="440" y="380" as="targetPoint" />
            <Array as="points">
              <mxPoint x="600" y="350" />
            </Array>
          </mxGeometry>
        </mxCell>
        <mxCell id="4fqeMKU_hJklu5X01QzV-51" value="" style="endArrow=classic;html=1;exitX=1;exitY=0.5;exitDx=0;exitDy=0;" edge="1" parent="1" source="4fqeMKU_hJklu5X01QzV-39">
          <mxGeometry width="50" height="50" relative="1" as="geometry">
            <mxPoint x="600" y="360" as="sourcePoint" />
            <mxPoint x="640" y="460" as="targetPoint" />
            <Array as="points" />
          </mxGeometry>
        </mxCell>
        <mxCell id="4fqeMKU_hJklu5X01QzV-52" value="FIM" style="rounded=1;whiteSpace=wrap;html=1;" vertex="1" parent="1">
          <mxGeometry x="640" y="430" width="120" height="60" as="geometry" />
        </mxCell>
        <mxCell id="4fqeMKU_hJklu5X01QzV-53" value="FIM" style="rounded=1;whiteSpace=wrap;html=1;" vertex="1" parent="1">
          <mxGeometry x="640" y="520" width="120" height="60" as="geometry" />
        </mxCell>
        <mxCell id="4fqeMKU_hJklu5X01QzV-59" value="SE (A&amp;gt;C) E (A&amp;gt;B)" style="rhombus;whiteSpace=wrap;html=1;" vertex="1" parent="1">
          <mxGeometry x="250" y="310" width="140" height="80" as="geometry" />
        </mxCell>
        <mxCell id="4fqeMKU_hJklu5X01QzV-65" style="edgeStyle=orthogonalEdgeStyle;rounded=0;orthogonalLoop=1;jettySize=auto;html=1;exitX=0.5;exitY=1;exitDx=0;exitDy=0;entryX=0.5;entryY=0;entryDx=0;entryDy=0;" edge="1" parent="1" source="4fqeMKU_hJklu5X01QzV-60" target="4fqeMKU_hJklu5X01QzV-63">
          <mxGeometry relative="1" as="geometry" />
        </mxCell>
        <mxCell id="4fqeMKU_hJklu5X01QzV-60" value="SE (B&amp;gt;C) E (B&amp;gt;A)" style="rhombus;whiteSpace=wrap;html=1;" vertex="1" parent="1">
          <mxGeometry x="250" y="410" width="140" height="80" as="geometry" />
        </mxCell>
        <mxCell id="4fqeMKU_hJklu5X01QzV-63" value="SE (C&amp;gt;B) E (C&amp;gt;A)" style="rhombus;whiteSpace=wrap;html=1;" vertex="1" parent="1">
          <mxGeometry x="250" y="510" width="140" height="80" as="geometry" />
        </mxCell>
        <mxCell id="4fqeMKU_hJklu5X01QzV-66" value="SENÃO" style="text;html=1;align=center;verticalAlign=middle;resizable=0;points=[];autosize=1;" vertex="1" parent="1">
          <mxGeometry x="310" y="490" width="60" height="20" as="geometry" />
        </mxCell>
      </root>
    </mxGraphModel>
  </diagram>
</mxfile>
